<svg xmlns="http://www.w3.org/2000/svg" width="85" height="85" viewBox="0 0 85 85">
  <g id="box" transform="translate(-556 -188)">
    <g id="Group" transform="translate(564.693 195.274)">
      <g id="Group-2" data-name="Group" transform="translate(2.837 17.495)">
        <path id="Vector" d="M0,0,30.966,18.586,61.722.109" fill="none" stroke="#c7c7c7" stroke-linecap="round" stroke-linejoin="round" stroke-width="3.5"/>
        <path id="Vector-2" data-name="Vector" d="M0,32.989V0" transform="translate(30.966 18.549)" fill="none" stroke="#c7c7c7" stroke-linecap="round" stroke-linejoin="round" stroke-width="3.5"/>
      </g>
      <path id="Vector-3" data-name="Vector" d="M26.526,1.691,7.739,12.153A16.626,16.626,0,0,0,0,25.292v19.9A16.626,16.626,0,0,0,7.739,58.334L26.526,68.8a16.84,16.84,0,0,0,14.6,0L59.911,58.334a16.626,16.626,0,0,0,7.739-13.139v-19.9a16.626,16.626,0,0,0-7.739-13.139L41.125,1.691A16.6,16.6,0,0,0,26.526,1.691Z" transform="translate(0 0)" fill="none" stroke="#c7c7c7" stroke-linecap="round" stroke-linejoin="round" stroke-width="3.5"/>
    </g>
    <path id="Vector-4" data-name="Vector" d="M34.516,33.244V19.932L0,0" transform="translate(582.129 202.28)" fill="none" stroke="#c7c7c7" stroke-linecap="round" stroke-linejoin="round" stroke-width="3.5"/>
    <path id="Vector-5" data-name="Vector" d="M0,0H85V85H0Z" transform="translate(556 188)" fill="none" opacity="0"/>
  </g>
</svg>
