<svg id="megaphone_1_" data-name="megaphone (1)" xmlns="http://www.w3.org/2000/svg" width="24" height="27.288" viewBox="0 0 24 27.288">
  <g id="Group_5573" data-name="Group 5573" transform="translate(0 1.017)">
    <g id="Group_5572" data-name="Group 5572">
      <path id="Path_1901" data-name="Path 1901" d="M53.028,28.841,43.986,19.8A2.4,2.4,0,0,0,40.3,22.836l-.013.063a16.731,16.731,0,0,1-4.59,8.577l-4.148,4.148a2.4,2.4,0,0,0,0,3.391l2.261,2.261a2.4,2.4,0,0,0,3.391,0l.565-.565,3.956,3.956a2.4,2.4,0,1,0,3.391-3.391l-1.7-1.7.565-.565a2.4,2.4,0,0,0,0-3.391l-.384-.384a16.733,16.733,0,0,1,6.327-2.7l.064-.013a2.4,2.4,0,0,0,3.036-.292h0A2.4,2.4,0,0,0,53.028,28.841Zm-16.955,11.3a.8.8,0,0,1-1.13,0l-2.261-2.261a.8.8,0,0,1,0-1.13L36.639,32.8l3.391,3.391Zm7.912,2.261a.8.8,0,0,1-1.13,1.13L38.9,39.579l1.13-1.13ZM41.16,37.319c.24-.24.6-.608,1.168-1.093l.528.528a.8.8,0,0,1,0,1.13l-.565.565Zm.034-2.227-3.459-3.459a18.3,18.3,0,0,0,3.891-7.412l6.98,6.98A18.3,18.3,0,0,0,41.194,35.092ZM51.9,31.1a.8.8,0,0,1-1.13,0l-9.043-9.043a.8.8,0,1,1,1.13-1.13L51.9,29.972A.8.8,0,0,1,51.9,31.1Z" transform="translate(-30.849 -19.098)" fill="#777"/>
    </g>
  </g>
  <g id="Group_5575" data-name="Group 5575" transform="translate(3.86 17.31)">
    <g id="Group_5574" data-name="Group 5574">
      <path id="Path_1902" data-name="Path 1902" d="M105.759,325a.8.8,0,0,0-1.13,0l-1.13,1.13a.8.8,0,0,0,1.13,1.13l1.13-1.13A.8.8,0,0,0,105.759,325Z" transform="translate(-103.266 -324.762)" fill="#777"/>
    </g>
  </g>
  <g id="Group_5577" data-name="Group 5577" transform="translate(16.008)">
    <g id="Group_5576" data-name="Group 5576">
      <path id="Path_1903" data-name="Path 1903" d="M331.993,0a.8.8,0,0,0-.8.8V2.4a.8.8,0,0,0,1.6,0V.8A.8.8,0,0,0,331.993,0Z" transform="translate(-331.194)" fill="#777"/>
    </g>
  </g>
  <g id="Group_5579" data-name="Group 5579" transform="translate(20.805 6.394)">
    <g id="Group_5578" data-name="Group 5578">
      <path id="Path_1904" data-name="Path 1904" d="M423.565,119.966h-1.6a.8.8,0,0,0,0,1.6h1.6a.8.8,0,1,0,0-1.6Z" transform="translate(-421.169 -119.966)" fill="#777"/>
    </g>
  </g>
  <g id="Group_5581" data-name="Group 5581" transform="translate(19.207 1.598)">
    <g id="Group_5580" data-name="Group 5580">
      <path id="Path_1905" data-name="Path 1905" d="M394.139,30.225a.8.8,0,0,0-1.13,0l-1.6,1.6a.8.8,0,0,0,1.13,1.13l1.6-1.6A.8.8,0,0,0,394.139,30.225Z" transform="translate(-391.178 -29.991)" fill="#777"/>
    </g>
  </g>
</svg>
