<svg xmlns="http://www.w3.org/2000/svg" width="23.975" height="25" viewBox="0 0 23.975 25"><defs><style>.a{fill:#777;}</style></defs><g transform="translate(-18.8)"><path class="a" d="M42.764,5.894a.629.629,0,0,0-.511-.617L31.057.063a.689.689,0,0,0-.577,0L19.174,5.324a.635.635,0,0,0-.374.549V19.1a.627.627,0,0,0,.374.57L30.48,24.931c.005,0,.005,0,.011.005a.2.2,0,0,1,.049.021c.005,0,.011.005.022.005l.049.016c.005,0,.011.005.016.005s.038.005.055.011H30.7c.022,0,.049.005.071.005a.326.326,0,0,0,.071-.005h.016a.2.2,0,0,0,.055-.011c.005,0,.011-.005.016-.005l.049-.016c.005,0,.011-.005.022-.005a.2.2,0,0,0,.049-.021c.005,0,.005,0,.011-.005L42.4,19.655a.637.637,0,0,0,.374-.57V5.91C42.764,5.9,42.764,5.9,42.764,5.894Zm-12-4.559L40.571,5.9,36.96,7.582,27.154,3.018Zm0,9.128L20.96,5.9,25.643,3.72l9.805,4.564ZM20.119,6.917l9.987,4.649V23.348L20.119,18.7ZM31.425,23.348V11.566l4.688-2.184v3.081a.66.66,0,0,0,1.319,0v-3.7L41.445,6.9V18.679Z" transform="translate(0 0)"/></g></svg>