<svg xmlns="http://www.w3.org/2000/svg" width="38.422" height="38.422" viewBox="0 0 38.422 38.422">
  <g id="vuesax_linear_notification" data-name="vuesax/linear/notification" transform="translate(-35.327 -249.219) rotate(31)">
    <g id="notification" transform="translate(171 188)">
      <path id="Vector" d="M9.392,0a7,7,0,0,0-7,6.992V10.36a5.562,5.562,0,0,1-.665,2.4L.38,14.987A2.235,2.235,0,0,0,1.641,18.4a24.459,24.459,0,0,0,15.49,0,2.332,2.332,0,0,0,1.261-3.415l-1.342-2.226a5.715,5.715,0,0,1-.654-2.4V6.992A7.019,7.019,0,0,0,9.392,0Z" transform="translate(4.631 3.391)" fill="none" stroke="#777" stroke-linecap="round" stroke-width="1.5"/>
      <path id="Vector-2" data-name="Vector" d="M4.312,1.468a7.056,7.056,0,0,0-1.119-.233A7.871,7.871,0,0,0,0,1.468a2.317,2.317,0,0,1,4.312,0Z" transform="translate(11.867 2.261)" fill="none" stroke="#777" stroke-linecap="round" stroke-linejoin="round" stroke-width="1.5"/>
      <path id="Vector-3" data-name="Vector" d="M6.992,0A3.506,3.506,0,0,1,3.5,3.5,3.509,3.509,0,0,1,1.026,2.471,3.509,3.509,0,0,1,0,0" transform="translate(10.527 22.243)" fill="none" stroke="#777" stroke-width="1.5"/>
      <path id="Vector-4" data-name="Vector" d="M0,0H28V28H0Z" fill="none" opacity="0"/>
    </g>
  </g>
</svg>
